<?xml version="1.0" encoding="UTF-8"?>
<svg id="Layer_2" data-name="Layer 2" xmlns="http://www.w3.org/2000/svg" viewBox="0 0 790.31 190.88">
  <defs>
    <style>
      .cls-1 {
        letter-spacing: 0em;
      }

      .cls-2 {
        fill: indigo;
      }

      .cls-3 {
        letter-spacing: -.01em;
      }

      .cls-4, .cls-5 {
        fill: #3a86ff;
      }

      .cls-5 {
        font-family: Montserrat-Medium, Montserrat;
        font-size: 28px;
        font-weight: 500;
      }

      .cls-6 {
        letter-spacing: -.01em;
      }
    </style>
  </defs>
  <g id="Layer_1-2" data-name="Layer 1">
    <g>
      <g>
        <text class="cls-5" transform="translate(222.08 138.97)"><tspan x="0" y="0">Design &amp; D</tspan><tspan class="cls-6" x="157.89" y="0">e</tspan><tspan class="cls-3" x="174.75" y="0">v</tspan><tspan x="189.98" y="0">elop</tspan><tspan class="cls-1" x="251.8" y="0">m</tspan><tspan x="281.48" y="0">ent</tspan></text>
        <g>
          <path class="cls-2" d="M225.12,58.63h21.32c15.36,0,25.88,9.25,25.88,23.47s-10.53,23.47-25.88,23.47h-21.32v-46.94ZM245.9,96.65c9.32,0,15.42-5.57,15.42-14.55s-6.1-14.55-15.42-14.55h-9.92v29.1h9.92Z"/>
          <path class="cls-2" d="M274.54,87.53c0-10.86,8.38-18.57,19.85-18.57s19.78,7.71,19.78,18.57-8.32,18.57-19.78,18.57-19.85-7.71-19.85-18.57ZM303.58,87.53c0-6.24-3.96-9.99-9.19-9.99s-9.25,3.76-9.25,9.99,4.02,9.99,9.25,9.99,9.19-3.76,9.19-9.99Z"/>
          <path class="cls-2" d="M355.48,84.91v20.65h-10.46v-19.04c0-5.83-2.68-8.52-7.31-8.52-5.03,0-8.65,3.08-8.65,9.72v17.84h-10.46v-36.08h9.99v4.22c2.82-3.09,7.04-4.76,11.94-4.76,8.52,0,14.95,4.96,14.95,15.96Z"/>
          <path class="cls-2" d="M360.18,82.1c0-14.15,10.86-24.27,25.48-24.27,8.11,0,14.89,2.95,19.31,8.31l-6.97,6.44c-3.15-3.62-7.11-5.5-11.8-5.5-8.78,0-15.02,6.17-15.02,15.02s6.24,15.02,15.02,15.02c4.69,0,8.65-1.88,11.8-5.57l6.97,6.44c-4.43,5.43-11.2,8.38-19.38,8.38-14.55,0-25.42-10.13-25.42-24.27Z"/>
          <path class="cls-2" d="M440.65,84.98v20.59h-9.79v-4.49c-1.95,3.29-5.7,5.03-11,5.03-8.45,0-13.48-4.69-13.48-10.93s4.49-10.8,15.49-10.8h8.31c0-4.49-2.68-7.11-8.31-7.11-3.82,0-7.78,1.27-10.39,3.35l-3.76-7.31c3.96-2.82,9.79-4.36,15.56-4.36,11,0,17.37,5.1,17.37,16.03ZM430.19,94.17v-3.69h-7.18c-4.89,0-6.44,1.81-6.44,4.22,0,2.61,2.21,4.36,5.9,4.36,3.49,0,6.5-1.61,7.71-4.89Z"/>
          <path class="cls-2" d="M469.96,68.95v9.66c-.87-.07-1.54-.13-2.35-.13-5.77,0-9.59,3.15-9.59,10.06v17.03h-10.46v-36.08h9.99v4.76c2.55-3.49,6.84-5.3,12.41-5.3Z"/>
          <path class="cls-2" d="M473.65,55.81h10.46v49.76h-10.46v-49.76Z"/>
          <path class="cls-2" d="M488.6,87.53c0-10.86,8.38-18.57,19.85-18.57s19.78,7.71,19.78,18.57-8.32,18.57-19.78,18.57-19.85-7.71-19.85-18.57ZM517.64,87.53c0-6.24-3.96-9.99-9.19-9.99s-9.25,3.76-9.25,9.99,4.02,9.99,9.25,9.99,9.19-3.76,9.19-9.99Z"/>
          <path class="cls-2" d="M529.18,102.22l3.49-7.51c3.22,2.08,8.11,3.49,12.54,3.49,4.83,0,6.64-1.27,6.64-3.29,0-5.9-21.79.13-21.79-14.28,0-6.84,6.17-11.67,16.7-11.67,4.96,0,10.46,1.14,13.88,3.15l-3.49,7.44c-3.55-2.01-7.11-2.68-10.39-2.68-4.69,0-6.71,1.48-6.71,3.35,0,6.17,21.79.2,21.79,14.42,0,6.71-6.24,11.47-17.03,11.47-6.1,0-12.27-1.68-15.62-3.89Z"/>
          <path class="cls-4" d="M566.46,58.63h21.32c15.36,0,25.88,9.25,25.88,23.47s-10.53,23.47-25.88,23.47h-21.32v-46.94ZM587.25,96.65c9.32,0,15.42-5.57,15.42-14.55s-6.1-14.55-15.42-14.55h-9.92v29.1h9.92Z"/>
          <path class="cls-4" d="M653.71,90.48h-27.29c1.01,4.49,4.83,7.24,10.33,7.24,3.82,0,6.57-1.14,9.05-3.49l5.57,6.04c-3.35,3.82-8.38,5.83-14.89,5.83-12.47,0-20.59-7.85-20.59-18.57s8.25-18.57,19.25-18.57,18.78,7.11,18.78,18.71c0,.8-.13,1.94-.2,2.82ZM626.28,84.38h17.77c-.74-4.56-4.16-7.51-8.85-7.51s-8.18,2.88-8.92,7.51Z"/>
          <path class="cls-4" d="M654.85,102.22l3.49-7.51c3.22,2.08,8.11,3.49,12.54,3.49,4.83,0,6.64-1.27,6.64-3.29,0-5.9-21.79.13-21.79-14.28,0-6.84,6.17-11.67,16.7-11.67,4.96,0,10.46,1.14,13.88,3.15l-3.49,7.44c-3.55-2.01-7.11-2.68-10.39-2.68-4.69,0-6.71,1.48-6.71,3.35,0,6.17,21.79.2,21.79,14.42,0,6.71-6.24,11.47-17.03,11.47-6.1,0-12.27-1.68-15.62-3.89Z"/>
          <path class="cls-4" d="M690.13,58.63c0-3.29,2.62-5.83,6.5-5.83s6.5,2.41,6.5,5.63c0,3.49-2.62,6.04-6.5,6.04s-6.5-2.55-6.5-5.83ZM691.4,69.49h10.46v36.08h-10.46v-36.08Z"/>
          <path class="cls-4" d="M746.25,69.49v30.04c0,13.41-7.24,19.58-20.25,19.58-6.84,0-13.48-1.68-17.7-4.96l4.16-7.51c3.09,2.48,8.11,4.09,12.74,4.09,7.38,0,10.59-3.35,10.59-9.86v-1.54c-2.75,3.02-6.71,4.49-11.4,4.49-9.99,0-18.04-6.91-18.04-17.43s8.05-17.44,18.04-17.44c5.03,0,9.19,1.68,11.94,5.16v-4.63h9.92ZM735.93,86.39c0-5.3-3.96-8.85-9.46-8.85s-9.52,3.55-9.52,8.85,4.02,8.85,9.52,8.85,9.46-3.55,9.46-8.85Z"/>
          <path class="cls-4" d="M790.31,84.91v20.65h-10.46v-19.04c0-5.83-2.68-8.52-7.31-8.52-5.03,0-8.65,3.08-8.65,9.72v17.84h-10.46v-36.08h9.99v4.22c2.82-3.09,7.04-4.76,11.94-4.76,8.52,0,14.95,4.96,14.95,15.96Z"/>
        </g>
      </g>
      <g>
        <path class="cls-4" d="M98.07,110.99c1.21,2.65,1.8,5.67,1.8,9.08v11.22l-1.19.82h-45.75v-12.03c0-3.34.57-6.33,1.7-8.97,1.15-2.65,2.75-4.87,4.82-6.67,2.07-1.8,4.56-3.18,7.43-4.11,2.87-.94,6.01-1.41,9.42-1.41s6.46.47,9.34,1.41c2.87.94,5.36,2.29,7.47,4.06,2.1,1.77,3.76,3.98,4.96,6.62Z"/>
        <path class="cls-4" d="M107.24,79.63c-2.07,1.8-4.55,3.18-7.43,4.11-2.87.94-6.01,1.41-9.42,1.41s-6.46-.47-9.33-1.41c-2.88-.94-5.37-2.29-7.48-4.06-2.1-1.77-3.76-3.98-4.96-6.62-1.21-2.65-1.8-5.67-1.8-9.08v-12.03h46.94v12.03c0,3.34-.57,6.33-1.7,8.97-1.15,2.65-2.75,4.87-4.82,6.67Z"/>
        <path class="cls-4" d="M140.55,106.37c1.01,2.91,1.51,5.93,1.51,9.08,0,2.81-.43,5.63-1.3,8.48-.88,2.84-2.16,5.38-3.87,7.62-1.7,2.25-3.84,4.07-6.41,5.47-2.58,1.4-5.6,2.1-9.08,2.1-1.61,0-3.25-.18-4.92-.55-1.54-.35-3.04-.88-4.47-1.6v-16.9c0-5.34-.85-10.18-2.56-14.49-1.01-2.54-2.26-4.87-3.76-6.98.36-.48.75-.94,1.15-1.36,1.34-1.37,2.79-2.49,4.36-3.36,1.57-.87,3.23-1.51,4.96-1.91,1.74-.4,3.41-.6,5.01-.6,3.08,0,5.91.67,8.48,2,2.58,1.34,4.78,3.11,6.62,5.32,1.84,2.2,3.26,4.76,4.26,7.67Z"/>
        <path class="cls-2" d="M144.28,0H46.61C20.91,0,0,20.9,0,46.6v97.68c0,25.69,20.91,46.6,46.61,46.6h97.67c25.7,0,46.6-20.91,46.6-46.6V46.6c0-25.7-20.9-46.6-46.6-46.6ZM153.75,128.73c-1.57,4.24-3.86,8.03-6.87,11.38-3.01,3.34-6.69,6.05-11.04,8.12-4.35,2.07-9.29,3.11-14.85,3.11-6.55,0-12.22-1.44-17-4.31-.58-.36-1.15-.72-1.7-1.09h-61.5v-25.88c0-5.81.94-10.92,2.81-15.3,1.87-4.37,4.42-8.03,7.62-10.98,3.17-2.9,6.87-5.08,11.11-6.55-2.1-2.56-3.81-5.47-5.1-8.75-1.7-4.31-2.56-9.15-2.56-14.49v-25.88h71.22v25.88c0,5.77-.93,10.83-2.77,15.18,4.49.2,8.62,1.25,12.41,3.18,4.22,2.13,7.84,4.93,10.89,8.37,3.04,3.44,5.41,7.35,7.11,11.73,1.71,4.38,2.56,8.84,2.56,13.39s-.78,8.64-2.35,12.89Z"/>
      </g>
    </g>
  </g>
</svg>