<?xml version="1.0" encoding="UTF-8"?>
<svg id="Layer_1" xmlns="http://www.w3.org/2000/svg" version="1.1" viewBox="0 0 1552 471">
  <!-- Generator: Adobe Illustrator 29.3.1, SVG Export Plug-In . SVG Version: 2.1.0 Build 151)  -->
  <defs>
    <style>
      .st0 {
        fill-rule: evenodd;
      }

      .st1 {
        fill: #707070;
      }
    </style>
  </defs>
  <path d="M1403,24.8s0,18.3,12.7,27.1l74.7,51.9h61.6c0,0-.2-.2-.3-.3L1403,0v24.8Z"/>
  <path class="st1" d="M1490.4,103.8l-74.7,51.8c-12.7,8.9-12.7,27.1-12.7,27.1v24.9l148.7-103.6c0,0,.2,0,.3-.2h-61.6Z"/>
  <path d="M1401.5,348.8c-.7-2.1-1.7-4.1-2.8-6.2-1.1-2.1-2.5-3.9-4.1-5.6-1.7-1.6-3.6-2.9-5.7-3.9s-4.6-1.5-7.4-1.5h-38.8v-137.5h-22.7v154.7h81.5Z"/>
  <path d="M1254.8,194.1v154.7h-24.4v-154.7h24.4Z"/>
  <path d="M1160.2,348.8h29.4c-.7-2.1-1.7-4.1-2.8-6.2-1.1-2.1-2.4-3.9-4.1-5.6-1.6-1.6-3.5-2.9-5.6-3.9-2.2-1-4.7-1.5-7.5-1.5h-38.8v-137.5h-22.7v154.7h52.1Z"/>
  <path d="M1035.3,348.8h24l-54.3-154.7h-22.1l-54,154.7h22.3l12-36.1h45.4c-.7-2.1-1.5-4.2-2.5-6.3-1.1-2.1-2.4-3.9-3.9-5.6-1.5-1.6-3.2-2.9-5.2-3.9-2.1-1-4.4-1.5-7-1.5h-21.2l1.3-3.8,21.5-64.5,1.6-6.8,1.5,6.6,40.6,121.9Z"/>
  <path d="M644.1,348.8h24.1l-54.3-154.7h-22.1l-54,154.7h22.3l12-36.1h45.4c-.7-2.1-1.5-4.2-2.6-6.3-1-2.1-2.3-3.9-3.8-5.6-1.5-1.6-3.3-2.9-5.3-3.9s-4.3-1.5-6.9-1.5h-21.2l1.3-3.8,21.5-64.5,1.6-6.8,1.5,6.6,40.5,121.9Z"/>
  <path d="M857.1,346.6c7.8-1.5,15.4-4.3,22.9-8.4v-73.7c-2.7,1-5.3,2.2-7.8,3.7-2.6,1.5-4.9,3.4-6.9,5.6-2.1,2.3-3.7,4.9-4.9,7.8-1.3,2.9-1.9,6.2-1.9,10.1v36.4c-4.3,1.4-8.3,2.3-11.9,2.7-3.7.3-7,.5-10,.5-7.5,0-14.5-1.4-21.1-4.3-6.6-2.9-12.4-7.1-17.4-12.5-4.9-5.4-8.9-12.1-11.8-20.1-2.9-7.9-4.3-16.9-4.3-26.9s1.4-19.2,4.3-27.1c2.9-7.9,6.9-14.7,11.9-20.2,5.1-5.5,10.9-9.6,17.5-12.4,6.6-2.9,13.6-4.3,21.1-4.3s10.1.5,15.8,1.4c5.7,1,12.4,3.1,20,6.4l6-15.9c-7.5-3.6-14.8-6.1-22.1-7.4-7.2-1.3-13.8-2-19.7-2-11.2,0-21.6,2-31.2,6.1-9.7,4-18,9.6-25.1,16.8-7,7.3-12.5,15.9-16.6,25.8-4.1,10-6.1,21-6.1,32.9s2,23.5,6,33.5c4,10.1,9.5,18.6,16.5,25.7,7.1,7.1,15.4,12.5,25.1,16.3,9.6,3.9,20,5.8,31.2,5.8,5.9,0,12.8-.8,20.5-2.3h0Z"/>
  <path d="M484.5,211.4h45.1v-17.3h-114v17.3h44.8v137.4h24.1v-137.4Z"/>
  <path d="M378,348.8h29.4c-.7-2.1-1.7-4.1-2.8-6.2-1.1-2.1-2.4-3.9-4.1-5.6-1.6-1.6-3.5-2.9-5.7-3.9-2.1-1-4.6-1.5-7.4-1.5h-38.8v-137.5h-22.7v154.7h52.1Z"/>
  <path d="M179.3,348.8h89.6v-17.2h-67.2v-51.6h57.7c-.7-2.1-1.7-4.2-2.8-6.3-1.1-2.1-2.5-3.9-4.1-5.5-1.6-1.7-3.5-3-5.7-4-2.1-1-4.6-1.5-7.4-1.5h-37.7v-51.4h64.1v-17.2h-86.5v154.7h0Z"/>
  <path d="M124.8,299.7c3.7-10,5.6-20.8,5.6-32.5s-1.9-24.1-5.7-34.1c-3.8-10.1-9.4-18.6-16.7-25.6-7.3-7-16.3-12.3-26.8-16s-22.6-5.5-36.3-5.5-13.3.4-21.4,1.3c-8.1.9-15.9,2.2-23.5,4.1v154.8h23v-141.2c3.2-.4,6.7-.7,10.5-1,3.9-.3,7.7-.5,11.4-.5,20.7,0,36,5.7,45.9,17,9.9,11.3,14.9,26.8,14.9,46.7s-1.1,16.7-3.4,24.4c-2.3,7.8-5.5,14.7-9.6,20.6s-9.1,10.6-15,14.1c-5.8,3.5-12.3,5.2-19.5,5.2h-3c-.9,0-2.2,0-3.7-.2-5.1-.3-9.3,1-12.6,3.9-3.3,2.9-5.8,6.3-7.7,10,6.1,1.6,11.1,2.6,15.2,3,4.1.5,8.4.7,12.9.7,9.8,0,19-2.1,27.6-6.2,8.6-4.1,16.1-9.8,22.6-17.1,6.5-7.3,11.6-16,15.3-25.9h0Z"/>
  <path class="st0" d="M202,422.5v48h-6.5v-48h6.5ZM254,433.8v36.7h-6.4v-48h5l31.3,37.4v-37.4h6.4v48h-5.4l-30.9-36.7ZM335.8,470.5v-48.1h17.5c4.1,0,7.6.6,10.7,1.9s5.6,3,7.6,5.2c2.1,2.1,3.6,4.7,4.6,7.6,1,2.9,1.5,6,1.5,9.3,0,3.7-.6,7-1.7,9.9-1.1,3-2.8,5.5-4.9,7.6-2.1,2.1-4.7,3.7-7.7,4.9-3,1.1-6.4,1.7-10.1,1.7h-17.5ZM371.3,446.4c0-2.7-.4-5.2-1.2-7.5s-2-4.2-3.5-5.8c-1.5-1.7-3.4-3-5.6-3.9-2.3-.9-4.8-1.3-7.7-1.3h-11.1v37.2h11.1c2.9,0,5.5-.5,7.8-1.4,2.2-1,4.1-2.3,5.6-4,1.5-1.7,2.6-3.6,3.4-5.9s1.2-4.7,1.2-7.4h0ZM441.1,465.3c2.9,0,5.4-.5,7.3-1.6,1.9-1.1,3.5-2.5,4.7-4.2,1.1-1.7,1.9-3.7,2.4-6,.5-2.2.7-4.5.7-6.8v-24.3h6.4v24.3c0,3.3-.4,6.4-1.1,9.3-.8,2.9-2.1,5.4-3.8,7.6-1.7,2.3-3.9,4-6.6,5.3s-6.1,1.9-10,1.9-7.4-.7-10.1-2c-2.8-1.3-5-3.1-6.7-5.4-1.7-2.2-2.9-4.8-3.6-7.7s-1.1-5.9-1.1-9v-24.3h6.4v24.3c0,2.4.2,4.7.7,7,.5,2.2,1.4,4.2,2.5,5.9,1.2,1.7,2.8,3.1,4.7,4.2,1.9,1.1,4.3,1.6,7.2,1.5h0ZM537.2,432.5c-.6-.6-1.4-1.2-2.3-1.8-.9-.6-2-1.1-3.2-1.6s-2.5-.8-3.9-1.1c-1.4-.3-2.8-.5-4.3-.5-3.9,0-6.8.7-8.7,2.1-1.8,1.4-2.7,3.3-2.7,5.8s.3,2.3.8,3.2c.5.9,1.3,1.6,2.4,2.2,1.1.6,2.5,1.1,4.2,1.6,1.7.5,3.6.9,5.9,1.4,2.6.5,5,1.2,7.1,1.9,2.1.7,3.9,1.5,5.4,2.6,1.5,1.1,2.6,2.3,3.4,3.8.8,1.5,1.2,3.3,1.2,5.5s-.5,4.3-1.4,6c-1,1.7-2.3,3.1-3.9,4.2-1.7,1.1-3.6,1.9-5.8,2.4-2.3.5-4.7.8-7.3.8-3.9,0-7.6-.6-11.1-1.8-3.5-1.1-6.6-2.8-9.4-5l3-5.1c.7.7,1.7,1.5,3,2.3,1.2.7,2.6,1.4,4.1,2,1.5.6,3.2,1.1,5,1.5,1.7.4,3.6.6,5.6.6,3.6,0,6.4-.6,8.4-1.8,1.9-1.3,2.9-3.1,2.9-5.5s-.3-2.5-.9-3.4c-.7-.9-1.6-1.7-2.8-2.4-1.3-.7-2.8-1.3-4.6-1.8-1.9-.5-3.9-1.1-6.2-1.6-2.6-.6-4.9-1.2-6.8-1.9-1.9-.7-3.6-1.5-4.9-2.5-1.3-.9-2.2-2.1-2.9-3.4-.7-1.3-1-3-1-4.9,0-2.3.4-4.3,1.3-6.1.9-1.7,2.2-3.2,3.8-4.5,1.6-1.2,3.5-2.1,5.8-2.7,2.2-.6,4.6-.9,7.2-.9,3.5,0,6.6.5,9.3,1.5,2.7,1,5.2,2.3,7.3,4l-3,4.9ZM620.5,422.4v5.4h-17.4v42.6h-6.5v-42.6h-17.4v-5.4h41.3ZM667.7,470.5h-6.4v-48.1h21.6c2.3,0,4.3.4,6.2,1.3,1.9.9,3.5,2.1,4.8,3.5,1.3,1.5,2.4,3.1,3.2,5,.7,1.8,1.1,3.7,1.1,5.6s-.2,3.3-.7,4.8c-.5,1.5-1.3,2.9-2.2,4.2-.9,1.3-2,2.4-3.3,3.3-1.3.9-2.8,1.5-4.4,1.9l12.3,18.4h-7.3l-11.5-17.2h-13.4v17.3ZM667.7,447.8h15.3c1.3,0,2.5-.3,3.6-.8s2-1.3,2.7-2.2c.8-.9,1.4-2,1.8-3.2.4-1.2.6-2.5.6-3.8s-.2-2.6-.7-3.8c-.5-1.2-1.2-2.3-2-3.2-.8-.9-1.8-1.7-2.9-2.2s-2.3-.8-3.5-.8h-14.9v20ZM748.4,422.5v48h-6.4v-48h6.4ZM800.3,465.1h27.9v5.4h-34.3v-48h33.7v5.4h-27.3v15.6h23.7v5h-23.7v16.6ZM899.8,432.6c-.6-.7-1.4-1.3-2.3-1.9-.9-.5-2-1-3.2-1.5-1.2-.5-2.5-.9-3.9-1.2-1.4-.3-2.9-.4-4.4-.4-3.9,0-6.8.7-8.6,2.1-1.9,1.4-2.8,3.3-2.8,5.7,0,1.3.3,2.4.8,3.3.5.9,1.4,1.6,2.5,2.2,1.1.6,2.5,1.1,4.2,1.6,1.6.4,3.6.9,5.9,1.4,2.6.5,4.9,1.1,7,1.8,2.1.7,4,1.6,5.5,2.6,1.5,1.1,2.6,2.3,3.4,3.8.7,1.5,1.1,3.4,1.1,5.5s-.5,4.3-1.4,6c-.9,1.7-2.2,3.1-3.8,4.2-1.7,1.1-3.6,1.9-5.8,2.4-2.3.5-4.7.8-7.3.8-3.9,0-7.6-.6-11.1-1.7-3.5-1.1-6.6-2.8-9.5-5l3.1-5.2c.7.8,1.7,1.6,2.9,2.3,1.3.8,2.7,1.5,4.2,2.1,1.5.6,3.2,1.1,4.9,1.5,1.8.3,3.7.5,5.6.5,3.6,0,6.4-.6,8.4-1.8,2-1.2,3-3,3-5.5,0-1.3-.3-2.5-.9-3.4-.7-.9-1.6-1.7-2.8-2.4-1.3-.7-2.8-1.3-4.6-1.8-1.9-.5-4-1.1-6.3-1.6-2.5-.6-4.8-1.2-6.7-1.9-1.9-.7-3.6-1.5-4.9-2.4-1.3-.9-2.3-2.1-2.9-3.5-.7-1.3-1-2.9-1-4.8s.4-4.4,1.3-6.1c.9-1.8,2.2-3.3,3.8-4.5,1.6-1.2,3.5-2.1,5.8-2.7,2.2-.6,4.6-.9,7.2-.9,3.4,0,6.5.5,9.3,1.4,2.7,1,5.2,2.3,7.3,4l-3,5ZM998.4,470.6v-48.1h6.4v42.7h28.2v5.4h-34.6ZM1102.5,422.5v5.5h-17.5v42.6h-6.4v-42.6h-17.4v-5.5h41.3ZM1143.3,470.6v-48.1h17.5c4,0,7.5.6,10.6,1.9s5.6,3,7.7,5.2c2,2.1,3.5,4.7,4.6,7.6,1,2.9,1.5,6,1.5,9.3s-.6,7-1.7,9.9c-1.1,3-2.8,5.5-4.9,7.6-2.1,2.1-4.7,3.7-7.7,4.9-3.1,1.1-6.4,1.7-10.1,1.7h-17.5ZM1178.7,446.5c0-2.7-.4-5.2-1.2-7.5-.7-2.3-1.9-4.2-3.4-5.8-1.6-1.7-3.5-3-5.7-3.9-2.3-.9-4.8-1.3-7.6-1.3h-11.1v37.2h11.1c2.9,0,5.4-.5,7.7-1.4s4.1-2.3,5.6-4c1.5-1.7,2.7-3.6,3.4-5.9.8-2.3,1.2-4.7,1.2-7.4h0ZM1225.3,463h5.2v7.6h-5.2v-7.6Z"/>
</svg>