<svg width="32" height="31" viewBox="0 0 32 31" fill="none" xmlns="http://www.w3.org/2000/svg">
<g id="Footer Logo Container">
<g id="Logo">
<path id="Vector" d="M16.427 18.0254C16.6235 18.4558 16.7193 18.9463 16.7193 19.5001V21.3223L16.526 21.4554H9.09598V19.5017C9.09598 18.9593 9.18855 18.4737 9.37207 18.0449C9.55883 17.6145 9.81868 17.254 10.1549 16.9617C10.491 16.6693 10.8954 16.4452 11.3615 16.2942C11.8276 16.1415 12.3376 16.0652 12.8914 16.0652C13.4452 16.0652 13.9405 16.1415 14.4083 16.2942C14.8744 16.4468 15.2788 16.6661 15.6214 16.9535C15.9625 17.241 16.2321 17.5999 16.427 18.0287V18.0254Z" fill="#4B0082"/>
<path id="Vector_2" d="M17.9158 12.9326C17.5796 13.225 17.1768 13.4491 16.7091 13.6001C16.243 13.7528 15.7331 13.8291 15.1793 13.8291C14.6254 13.8291 14.1301 13.7528 13.664 13.6001C13.1963 13.4475 12.7919 13.2282 12.4492 12.9408C12.1082 12.6533 11.8386 12.2944 11.6437 11.8656C11.4472 11.4353 11.3513 10.9448 11.3513 10.391V8.43726H18.9747V10.391C18.9747 10.9334 18.8821 11.419 18.6986 11.8478C18.5118 12.2782 18.252 12.6387 17.9158 12.931V12.9326Z" fill="#4B0082"/>
<path id="Vector_3" d="M23.3259 17.2752C23.4899 17.7478 23.5711 18.2383 23.5711 18.7498C23.5711 19.2062 23.5013 19.6642 23.36 20.127C23.2171 20.5883 23.0092 21.0008 22.7315 21.3646C22.4554 21.73 22.1078 22.0256 21.6904 22.2529C21.2714 22.4803 20.781 22.594 20.2158 22.594C19.9543 22.594 19.688 22.5648 19.4168 22.5047C19.1667 22.4478 18.9231 22.3617 18.6908 22.2448V19.5002C18.6908 18.6329 18.5528 17.8469 18.2751 17.1469C18.111 16.7344 17.908 16.356 17.6644 16.0133C17.7229 15.9353 17.7862 15.8606 17.8512 15.7924C18.0688 15.5699 18.3043 15.388 18.5593 15.2467C18.8142 15.1055 19.0838 15.0015 19.3648 14.9366C19.6474 14.8716 19.9186 14.8391 20.1785 14.8391C20.6787 14.8391 21.1383 14.9479 21.5557 15.1639C21.9747 15.3815 22.332 15.669 22.6308 16.0279C22.9296 16.3852 23.1602 16.801 23.3226 17.2736L23.3259 17.2752Z" fill="#4B0082"/>
<path id="Vector_4" d="M23.9319 0H8.06973C3.8959 0 0.5 3.39428 0.5 7.56811V23.4319C0.5 27.6041 3.8959 31 8.06973 31H23.9319C28.1057 31 31.5 27.6041 31.5 23.4319V7.56811C31.5 3.39428 28.1057 0 23.9319 0ZM25.4699 20.9065C25.2149 21.5951 24.843 22.2106 24.3541 22.7547C23.8653 23.2971 23.2677 23.7372 22.5612 24.0734C21.8547 24.4096 21.0524 24.5785 20.1495 24.5785C19.0857 24.5785 18.1649 24.3446 17.3886 23.8785C17.2944 23.82 17.2018 23.7616 17.1125 23.7015H7.12453V19.4984C7.12453 18.5549 7.27719 17.725 7.58089 17.0136C7.88459 16.3039 8.29872 15.7095 8.81842 15.2304C9.33325 14.7594 9.93415 14.4054 10.6227 14.1666C10.2817 13.7509 10.004 13.2783 9.79448 12.7456C9.51839 12.0456 9.37872 11.2596 9.37872 10.3923V6.18928H20.9453V10.3923C20.9453 11.3294 20.7942 12.1512 20.4954 12.8577C21.2246 12.8901 21.8953 13.0607 22.5108 13.3741C23.1962 13.72 23.7841 14.1748 24.2794 14.7334C24.7732 15.2921 25.1581 15.9271 25.4341 16.6385C25.7119 17.3498 25.8499 18.0741 25.8499 18.8131C25.8499 19.552 25.7232 20.2163 25.4683 20.9065H25.4699Z" fill="#4B0082"/>
</g>
</g>
</svg>
