<?xml version="1.0" encoding="UTF-8"?>
<svg width="32" height="31" viewBox="0 0 32 31" xmlns="http://www.w3.org/2000/svg">
  <!-- DC Logo Icon only - White version for dark backgrounds -->
  <g>
    <path d="M23.9,0h-15.9C3.9,0,.5,3.4.5,7.6v15.9c0,4.2,3.4,7.6,7.6,7.6h15.9c4.2,0,7.6-3.4,7.6-7.6V7.6c0-4.2-3.4-7.6-7.6-7.6ZM25.5,20.9c-.3.7-.6,1.3-1.1,1.8-.5.5-1.1,1-1.8,1.3-.7.3-1.5.5-2.4.5s-2-.2-2.8-.7c0,0-.2-.1-.3-.2H7.1v-4.2c0-.9.2-1.8.5-2.5.3-.7.7-1.3,1.2-1.8.5-.5,1.1-.8,1.8-1.1-.3-.4-.6-.9-.8-1.4-.3-.7-.4-1.5-.4-2.4v-4.2h11.6v4.2c0,.9-.2,1.8-.4,2.5.7,0,1.4.2,2,.5.7.3,1.3.8,1.8,1.4.5.6.9,1.2,1.2,1.9.3.7.4,1.4.4,2.2s-.1,1.4-.4,2.1h0Z" fill="white"/>
    <path d="M16.4,18c.2.4.3.9.3,1.5v1.8h-.2c0,.1-7.4.1-7.4.1v-2c0-.5,0-1,.3-1.5.2-.4.4-.8.8-1.1.3-.3.7-.5,1.2-.7.5-.2,1-.2,1.5-.2s1,0,1.5.2c.5.2.9.4,1.2.7.3.3.6.6.8,1.1h0Z" fill="white"/>
    <path d="M17.9,12.9c-.3.3-.7.5-1.2.7-.5.2-1,.2-1.5.2s-1,0-1.5-.2c-.5-.2-.9-.4-1.2-.7-.3-.3-.6-.6-.8-1.1-.2-.4-.3-.9-.3-1.5v-2h7.6v2c0,.5,0,1-.3,1.5-.2.4-.4.8-.8,1.1h0Z" fill="white"/>
    <path d="M23.3,17.3c.2.5.2,1,.2,1.5s0,.9-.2,1.4c-.1.5-.4.9-.6,1.2-.3.4-.6.7-1,.9-.4.2-.9.3-1.5.3s-.5,0-.8,0c-.3,0-.5-.1-.7-.3v-2.7c0-.9-.1-1.7-.4-2.4-.2-.4-.4-.8-.6-1.1,0,0,.1-.2.2-.2.2-.2.5-.4.7-.5.3-.1.5-.2.8-.3.3,0,.6,0,.8,0,.5,0,1,.1,1.4.3.4.2.8.5,1.1.9.3.4.5.8.7,1.2h0Z" fill="white"/>
  </g>
</svg> 