<?xml version="1.0" encoding="UTF-8"?>
<svg id="layer" xmlns="http://www.w3.org/2000/svg" version="1.1" xmlns:xlink="http://www.w3.org/1999/xlink" viewBox="0 0 652 72">
  <!-- Generator: Adobe Illustrator 29.3.1, SVG Export Plug-In . SVG Version: 2.1.0 Build 151)  -->
  <polygon points="29.7 12.8 21.4 12.8 21.4 65.1 48.4 65.1 48.4 57.3 29.7 57.3 29.7 12.8"/>
  <path d="M65.9,65.1h8.9l5.8-12.6h21.9l5.4,12.6h9.1l-25.1-55.8-26,55.8ZM84,44.7l7.7-16.8,7.3,16.8h-15Z"/>
  <polygon points="174.3 48.5 136.5 9 136.5 65.1 144.8 65.1 144.8 29.2 182.6 68.6 182.6 12.8 174.3 12.8 174.3 48.5"/>
  <polygon points="209.4 65.1 238.5 65.1 238.5 57.3 217.7 57.3 217.7 40.4 237.9 40.4 237.9 32.6 217.7 32.6 217.7 20.6 238.5 20.6 238.5 12.8 209.4 12.8 209.4 65.1"/>
  <path d="M379.1,37.8c2.1-2.7,3.2-5.9,3.2-9.6s-1.7-8.6-5.1-11.5c-3.1-2.6-8.1-3.9-15-3.9h-9.4v52.2h8.3v-21.2h1.1l14.8,21.2h10.1l-16.1-22.1c3.4-.8,6.1-2.5,8.1-5.1ZM361.2,36.6v-16h2.6c7.1,0,10.6,2.5,10.6,7.7s-3.6,8.3-10.9,8.3h-2.3Z"/>
  <polygon points="433.5 12.8 421.8 33.3 410.1 12.8 400.6 12.8 417.6 42.5 417.6 65.1 425.9 65.1 425.9 42.6 443.1 12.8 433.5 12.8"/>
  <path d="M450.3,65.1h8.9l5.8-12.6h21.9l5.4,12.6h9.1l-25.1-55.8-26,55.8ZM468.5,44.7l7.7-16.8,7.3,16.8h-15Z"/>
  <polygon points="556.8 48.2 519 8.7 519 64.8 527.3 64.8 527.3 28.9 565 68.3 565 12.5 556.8 12.5 556.8 48.2"/>
  <polygon points="584.4 12.5 584.4 20.3 598.9 20.3 598.9 64.8 607.1 64.8 607.1 20.3 621.4 20.3 621.4 12.5 584.4 12.5"/>
  <path d="M323.5,36.9c2.7-2.6,4.1-5.7,4.1-9.3s-.4-4.1-1.3-6.1-2-3.7-3.5-5-3.3-2.2-5.4-2.8c-2.1-.5-4.9-.8-8.3-.8h-8v52.2h11.9c3.5,0,6.5-.3,8.9-1,2.2-.7,4.2-1.9,5.9-3.6,2.9-2.8,4.4-6.3,4.4-10.4s-.8-5.9-2.5-8.2c-1.5-2.4-3.6-4.1-6.2-5ZM309.2,20.5h2.5c2.6,0,4.5.6,5.9,1.8,1.3,1.2,2,3,2,5.4s-.7,4.3-2,5.5-3.4,1.9-6.2,1.9h-2.2v-14.6h0ZM321.5,55.2c-1.6,1.3-4.2,2-7.6,2h-4.6v-15.2h3.7c4.1,0,7,.7,8.6,2.2s2.4,3.3,2.4,5.5-.9,4.1-2.5,5.5Z"/>
</svg>