<?xml version="1.0" encoding="UTF-8"?>
<svg id="Layer_1" xmlns="http://www.w3.org/2000/svg" version="1.1" xmlns:xlink="http://www.w3.org/1999/xlink" viewBox="0 0 1000 1000">
  <!-- Generator: Adobe Illustrator 29.3.1, SVG Export Plug-In . SVG Version: 2.1.0 Build 151)  -->
  <defs>
    <style>
      .st0 {
        fill: #c00;
      }
    </style>
  </defs>
  <path class="st0" d="M146.4,360.6C146.4,165.2,304.7,6.9,500,6.9s353.8,158.4,353.8,353.8-158.4,353.6-353.8,353.6-353.6-158.4-353.6-353.6ZM500,596.4c130.2,0,235.8-105.5,235.8-235.8s-105.5-235.8-235.8-235.8-235.8,105.5-235.8,235.8c0,130.2,105.5,235.8,235.8,235.8ZM617.9,360.6c0,65-52.8,117.9-117.9,117.9s-117.9-52.8-117.9-117.9,52.8-117.9,117.9-117.9,117.9,52.7,117.9,117.9h0Z"/>
  <path class="st0" d="M207.4,760.2v41.5h27.9v25.5h-27.9v68.8c0,12.9,3.2,16.1,16.1,16.1s8.6-.3,11.8-1v29.8c-6.4,1-15,1.3-22.5,1.3-29.3,0-43.5-8.9-43.5-33.6v-81.2h-23.1v-25.5h23.1v-41.5h38.1ZM372.6,904.3c0,9.1,1.7,11.1,9.6,11.1h1v24.7c-3.5,1.7-7.8,3.2-15.8,3.2-17.7,0-26.9-5.4-29.8-18-9.1,11.1-25.2,19-48.3,19s-47.2-14.8-47.2-41.5,4.2-22.8,12.1-29.6c8.9-7.5,21.7-11.6,44.9-14,24.7-2.7,35.4-4.9,35.4-17.2s-11.6-18.5-24.4-18.5-24.2,6.4-25.5,21h-38.1c1.7-30.3,26.6-46.4,65.4-46.4s60.7,13.6,60.7,39.5v66.8h0ZM303.7,918.8c20.4,0,30.9-11.1,30.9-31.4v-14.8c-3.5,3.2-10.2,5.1-23.1,6.7-19.5,2.4-31.1,6.7-31.1,21.7,0,10.9,6.8,17.7,23.4,17.7h0ZM482.1,799.4v35.4c-4.5-.9-9.1-1.4-13.6-1.3-27.6,0-37.5,19-37.5,44.6v62.5h-38.1v-138.7h36.3v25.7h.5c7.2-17.5,25.2-29.6,44.2-29.6s6.3.9,8.2,1.4h0ZM583,820.4h.5v-18.5h36.3v130.1c0,36-21,61.2-71.6,61.2s-59.8-16.3-61.4-44.6h37.8c3.2,13.4,13.6,19,28.4,19s30.6-12.3,30.6-33.6v-19h-.5c-7.5,13.4-22.8,21.5-41.5,21.5-40,0-59.3-29.3-59.3-69.8s20.7-68.6,59.5-68.6,32.7,7.6,41.3,22.4h0ZM551.2,907.8c20.7,0,32.5-17,32.5-38.7s-5.9-42.4-32.8-42.4-30.6,16.6-30.6,39.5,8.7,41.7,30.9,41.7h0ZM768.7,873.4c0,2.2-.3,6.9-.3,6.9h-100c1,23.9,12.1,35.1,33.8,35.1s27.4-8.4,30.3-18h33.6c-10.2,31.4-31.6,46.7-64.9,46.7s-70.8-30.3-70.8-73,28.9-73.3,70.8-73.3c43.7.1,67.5,34.6,67.5,75.6h0ZM730.4,856.2c-3.7-21-12.9-29.6-30.6-29.6s-29.8,11.3-31.4,29.6h62ZM825.9,760.2v41.5h27.9v25.5h-27.9v68.8c0,12.9,3.2,16.1,16.1,16.1s8.6-.3,11.8-1v29.8c-6.4,1-15,1.3-22.5,1.3-29.3,0-43.5-8.9-43.5-33.6v-81.2h-23.1v-25.5h23.1v-41.5h38.1Z"/>
</svg>