<?xml version="1.0" encoding="UTF-8"?>
<svg id="Layer_2" data-name="Layer 2" xmlns="http://www.w3.org/2000/svg" viewBox="0 0 544.29 534.57">
  <defs>
    <style>
      .cls-1 {
        fill: #1c1f26;
      }
    </style>
  </defs>
  <g id="Layer_1-2" data-name="Layer 1">
    <path class="cls-1" d="M532.22,303.74c-8.05-20.67-19.25-39.14-33.61-55.39-14.36-16.26-31.49-29.44-51.37-39.53-17.87-9.09-37.41-14.04-58.59-14.96,8.69-20.57,13.06-44.46,13.06-71.7V0H65.53v122.16c0,25.25,4.02,48.06,12.07,68.42,6.12,15.46,14.15,29.22,24.08,41.32-20.01,6.94-37.5,17.25-52.45,30.95-15.15,13.9-27.14,31.17-35.98,51.85-8.83,20.68-13.26,44.74-13.26,72.21v122.16h290.32c2.58,1.78,5.25,3.5,8,5.16,22.57,13.57,49.32,20.36,80.25,20.36,26.21,0,49.56-4.9,70.07-14.68,20.52-9.79,37.88-22.58,52.08-38.35,14.21-15.79,25.02-33.7,32.43-53.74,7.42-20.05,11.13-40.33,11.13-60.84s-4.02-42.54-12.08-63.21ZM122.83,65.34h221.58v56.81c0,15.78-2.69,29.9-8.05,42.37-5.38,12.47-12.95,22.97-22.73,31.49-9.79,8.52-21.47,14.99-35.04,19.42-13.58,4.42-28.41,6.63-44.5,6.63s-30.47-2.21-44.04-6.63c-13.58-4.42-25.33-10.82-35.27-19.18-9.94-8.37-17.76-18.78-23.44-31.25-5.68-12.48-8.52-26.75-8.52-42.85v-56.81ZM57.29,386.89c0-15.78,2.69-29.9,8.05-42.37,5.38-12.47,12.95-22.97,22.73-31.49,9.79-8.52,21.47-14.99,35.04-19.42,13.58-4.42,28.41-6.63,44.5-6.63s30.47,2.21,44.04,6.63c13.58,4.42,25.33,10.82,35.27,19.18,9.94,8.37,17.76,18.78,23.44,31.25,5.68,12.48,8.52,26.75,8.52,42.85v52.96l-5.6,3.86H57.29v-56.81ZM471.85,405.07c-4.1,13.42-10.18,25.41-18.23,35.98-8.05,10.58-18.15,19.18-30.3,25.81-12.15,6.63-26.43,9.94-42.85,9.94-7.58,0-15.31-.87-23.2-2.61-7.31-1.61-14.34-4.14-21.11-7.5v-79.8c0-25.25-4.02-48.06-12.07-68.42-4.75-12-10.67-22.95-17.72-32.92,1.71-2.25,3.5-4.43,5.45-6.42,6.32-6.47,13.18-11.77,20.6-15.86,7.42-4.1,15.23-7.1,23.44-9,8.21-1.89,16.1-2.84,23.68-2.84,14.52,0,27.86,3.15,40.01,9.47,12.15,6.31,22.57,14.68,31.25,25.1,8.69,10.42,15.39,22.49,20.12,36.22,4.74,13.73,7.1,28.01,7.1,42.85,0,13.26-2.05,26.59-6.16,40.01Z"/>
  </g>
</svg>