<?xml version="1.0" encoding="UTF-8"?>
<svg id="Layer_1" xmlns="http://www.w3.org/2000/svg" version="1.1" viewBox="0 0 468.5 97.7">
  <!-- Generator: Adobe Illustrator 29.3.1, SVG Export Plug-In . SVG Version: 2.1.0 Build 151)  -->
  <defs>
    <style>
      .st0 {
        fill: #54301a;
      }
    </style>
  </defs>
  <path class="st0" d="M50.6,3.1h-27.4v2.2h8.9v45.2c0,13.7-3.7,17.4-12.2,17.4s-6.3-4.1-6.3-5.9c0-4.8-.4-8.2-4.8-8.2s-5.2,4.4-5.2,5.9c0,6.3,3,11.1,15.2,11.1s22.6-4.8,22.6-21.5V5.3h8.9v-2.2h.4ZM54.3,60.5c-1.5,0-3,.4-3.7,1.5-1.1,1.1-1.5,2.2-1.5,3.7s.4,2.6,1.5,3.7c1.1,1.1,2.2,1.5,3.7,1.5s2.6-.4,3.7-1.5c1.1-1.1,1.5-2.2,1.5-3.7s-.4-2.6-1.5-3.7-2.2-1.5-3.7-1.5h0ZM115.1,60.5c-1.5,0-2.6.4-3.7,1.5-1.1,1.1-1.5,2.2-1.5,3.7s.4,2.6,1.5,3.7c1.1,1.1,2.2,1.5,3.7,1.5s3-.4,3.7-1.5c1.1-1.1,1.5-2.2,1.5-3.7s-.4-2.6-1.5-3.7c-1.1-1.1-2.2-1.5-3.7-1.5h0ZM95.8,3.1h-26.7v2.2h7.8v51.9c0,4.1-.4,5.2-.7,6.3-.4,1.5-1.5,2.2-3.3,3-1.1.4-3,.7-5.6.7v2.2h28.9v-2.2c-2.6,0-4.4-.4-5.6-.7-1.8-.7-3-1.9-3.3-3-.5-1.3-.7-2.7-.7-4.1v-17.8h7c20.8,0,26.7-8.2,26.7-19.3s-3.3-19.3-24.5-19.3h0ZM92.1,39h-5.6V5.7h4.8c15.9,0,19.6,6.7,19.6,17s-6.3,16.3-18.9,16.3ZM205.9,63.1c-.5-1.4-.7-2.9-.7-4.4V5.3h7v-2.2h-17c-.4.7-20.4,50.4-20.4,50.4l-.4.4q-.4,0-.4-.4S152.5,3.5,152.5,3.1h-18.9v2.2h8.2v56.3c0,1.1-.4,2.2-1.1,3.3-.7,1.1-1.9,1.9-3,2.2-.7.4-2.2.4-3.7.4v2.2h18.5v-2.2c-1.5,0-2.2-.4-3.3-.4-1.5-.4-2.2-1.1-3-2.2-.7-.7-1.1-1.9-1.1-3.3l-.4-4.8V12.4h1.1s24.1,56.3,24.5,57.1h1.9l23-56.7h.7v46c0,1.9-.4,3.3-.7,4.8s-1.5,2.2-3,3c-1.6.5-3.2.8-4.8.7v2.2h25.9v-2.2c-1.6,0-3.3-.2-4.8-.7-1.1-.7-2.2-1.9-2.6-3.3ZM241.1,20.9c-14.1,0-22.6,9.3-22.6,25.2,0,23.7,18.5,25.2,22.2,25.2,7.8,0,22.6-4.8,22.6-25.6s-9.6-24.8-22.2-24.8ZM240.7,68.3c-10.4,0-12.2-5.2-12.2-21.9s.7-22.6,12.2-22.6,12.2,10,12.2,21.9-3,22.6-12.2,22.6ZM299.7,21.6c-8.2,0-11.1,4.8-13.3,10h-.7s-1.1-7.4-1.5-9.3h-16.3v2.6h8.9v32.6c0,3.3-.4,5.6-1.1,7-.7,1.5-3,2.6-6.3,2.6h-1.5v3h27.4v-3h-1.5c-3.7,0-5.2-.7-5.9-2.2-.7-1.5-1.1-3.7-1.1-7v-17.8c0-5.6,4.4-12.2,9.6-12.2s5.2,8.2,11.5,4.8c3-1.9,2.2-11.1-8.2-11.1ZM407.5,64.6c-3,0-3.7-1.5-4.1-4.4v-25.9c0-4.5-.7-7-3.3-9.6-2.6-2.6-7.4-3.7-14.5-3.7s-11.5,1.1-14.8,3.7c-3,2.2-4.4,4.5-4.4,7.8s.4,2.6,1.1,3c.7.7,1.9,1.1,3,1.1,2.6,0,4.1-1.5,4.8-4.8.4-2.6,1.1-4.1,2.2-5.6,1.5-1.5,3.7-2.2,6.3-2.2s5.9.7,7,2.6,1.9,4.1,1.9,7v7.8c-8.5.7-29.3,2.6-28.2,18.2.4,5.9,5.6,11.5,12.6,11.5s12.6-4.4,15.9-7.8c.4,3.3,3.7,7.4,9.3,7.4s10-3,10.4-10.8h-1.5c0,3-1.9,4.8-3.7,4.8h0ZM393.4,59.4v.4l-.4.4c-4.4,4.1-8.2,5.6-10.7,5.6-6.7,0-7.8-5.6-7.8-8.2,0-8.9,12.2-13.3,18.9-13.3,0,0,0,15.2,0,15.2ZM463.1,64.3c-.7-1.5-1.9-3.7-1.9-7v-21.5c0-3-.4-5.9-1.5-7.8-1.1-2.2-3-3.7-4.8-4.8-2.2-1.1-4.4-1.5-7-1.5-9.6,0-13.3,5.9-15.6,9.3h-.7l-1.9-8.5h-14.8v2.6h7.4v32.6c0,2.6-.4,4.4-.7,5.6-.4,1.5-1.5,2.6-2.6,3-.7.4-2.2.7-4.1.7v3h23.3v-3c-2.2-.4-4.1-.7-4.8-1.9-.7-1.1-1.5-3.3-1.5-6.7v-12.6c0-5.2,0-10.4,1.9-13.3,1.8-3.3,5.6-5.2,9.3-5.2s5.6,1.1,6.7,3.3c1.1,1.9,1.5,7.4,1.5,11.1v15.6c0,2.6.4,4.4,0,5.6-.4,1.5-.7,2.6-1.9,3.3-.7.7-2.2.7-3.7,1.1v3h22.6v-3c-2.6-1.1-4.5-1.9-5.2-3ZM357.1,18.7c-1.5.4-2.2,1.9-3,3.7-.4,1.9-1.1,3-2.2,3.3-1.1.4-2.2.4-3.3-.4-2.6-2.2-7-4.8-15.2-4.8-13.3,0-18.9,9.3-18.9,17.8s3.7,14.8,12.2,16.7c.4,0,.4.7,0,.7-7,1.5-13.7,3.7-13.7,10.4s2.2,6.3,5.6,7.8c3.3,1.5,8.1,2.2,14.1,2.2s8.9.4,11.1.4c2.2.3,4.4,1,6.3,2.2,1.5,1.1,2.2,3,2.2,5.2,0,3.3-1.9,5.6-5.2,7.8-3.3,1.9-7.4,2.6-13,2.6s-8.5-.4-11.9-2.6c-2.6-1.5-3-4.4-2.6-6.7s-.4-4.4-3-5.2c-1.6-.4-3.3.4-4.1,1.9-.7,1.1-1.1,2.6-1.1,4.4,0,5.6,4.5,8.2,7.8,9.3,5.2,1.5,8.5,1.9,13,1.9,6.3,0,11.1-1.1,14.8-2.6,3.7-1.9,5.9-4.1,7.4-6.7,1.5-2.6,2.2-5.2,2.2-7.8s-.7-6.3-2.2-8.2c-4.8-6.3-11.5-5.6-26.3-6.3-7,0-8.5-1.5-8.5-3.7,0-3.3,2.6-4.4,13-6.3,10.4-1.5,20-5.6,20-17.8s-.7-6.7-1.9-8.9c2.2.4,4.1.4,5.9,0,2.2-.7,3.3-1.9,4.1-3,.7-1.5,1.1-3,.4-4.1.4-3-1.5-4.1-4.1-3.3h0ZM333.8,53.5c-6.3,0-9.6-2.2-9.6-14.8s3-15.6,9.6-15.6,10,5.9,10,15.2c0,13.3-4.1,15.2-10,15.2Z"/>
</svg>