<svg width="25" height="24" viewBox="0 0 25 24" fill="none" xmlns="http://www.w3.org/2000/svg">
<g id="Layer 1">
<path id="Vector" d="M23.6284 13.5083C23.271 12.589 22.7738 11.7676 22.1363 11.0449C21.4988 10.3218 20.7383 9.73564 19.8557 9.28691C19.0624 8.88264 18.1949 8.6625 17.2546 8.62159C17.6404 7.70677 17.8344 6.64431 17.8344 5.43285V0H2.90966V5.43285C2.90966 6.5558 3.08812 7.57024 3.4455 8.47571C3.7172 9.16327 4.07369 9.77522 4.51454 10.3133C3.62619 10.622 2.84972 11.0805 2.18601 11.6898C1.51343 12.308 0.981132 13.076 0.588679 13.9957C0.19667 14.9154 0 15.9855 0 17.2071V22.64H12.8888C13.0033 22.7192 13.1219 22.7957 13.2439 22.8695C14.2459 23.473 15.4335 23.775 16.8067 23.775C17.9703 23.775 19.0069 23.557 19.9174 23.1221C20.8284 22.6867 21.5991 22.1179 22.2295 21.4165C22.8604 20.7143 23.3403 19.9178 23.6693 19.0266C23.9987 18.1349 24.1634 17.2329 24.1634 16.3208C24.1634 15.4087 23.9849 14.4289 23.6271 13.5096L23.6284 13.5083ZM5.45349 2.90588H15.2906V5.43241C15.2906 6.1342 15.1711 6.76216 14.9332 7.31674C14.6943 7.87132 14.3583 8.33829 13.9241 8.7172C13.4895 9.09612 12.9709 9.38386 12.3685 9.58087C11.7656 9.77745 11.1072 9.87573 10.3929 9.87573C9.67858 9.87573 9.04017 9.77745 8.43773 9.58087C7.83485 9.3843 7.31321 9.09967 6.87192 8.72788C6.43063 8.35564 6.08346 7.89267 5.8313 7.33809C5.57913 6.78306 5.45305 6.14843 5.45305 5.43241V2.90588H5.45349ZM2.54384 17.2063C2.54384 16.5045 2.66326 15.8765 2.90122 15.3219C3.14007 14.7673 3.47614 14.3004 3.91032 13.9215C4.34495 13.5426 4.86348 13.2548 5.46593 13.0578C6.06881 12.8612 6.72719 12.7629 7.44151 12.7629C8.15582 12.7629 8.79423 12.8612 9.39667 13.0578C9.99955 13.2544 10.5212 13.539 10.9625 13.9108C11.4038 14.283 11.7509 14.746 12.0031 15.3006C12.2553 15.8556 12.3814 16.4902 12.3814 17.2063V19.5616L12.1327 19.7332H2.54384V17.2067V17.2063ZM20.9483 18.0148C20.7663 18.6116 20.4963 19.1448 20.139 19.6149C19.7816 20.0855 19.3332 20.4679 18.7938 20.7628C18.2544 21.0576 17.6204 21.2049 16.8914 21.2049C16.5549 21.2049 16.2118 21.1662 15.8615 21.0888C15.537 21.0172 15.2249 20.9047 14.9243 20.7552V17.2063C14.9243 16.0833 14.7458 15.0689 14.3885 14.1634C14.1776 13.6297 13.9148 13.1427 13.6018 12.6993C13.6777 12.5993 13.7572 12.5023 13.8437 12.4138C14.1243 12.1261 14.4289 11.8904 14.7583 11.7085C15.0877 11.5261 15.4344 11.3927 15.7989 11.3082C16.1634 11.2242 16.5136 11.1819 16.8502 11.1819C17.4948 11.1819 18.087 11.322 18.6264 11.6031C19.1658 11.8837 19.6284 12.2559 20.0138 12.7194C20.3996 13.1828 20.697 13.7196 20.907 14.3302C21.1174 14.9408 21.2222 15.5759 21.2222 16.2359C21.2222 16.8256 21.1312 17.4184 20.9487 18.0152L20.9483 18.0148Z" fill="#4B0082"/>
</g>
</svg>
