<svg width="72" height="70" viewBox="0 0 72 70" fill="none" xmlns="http://www.w3.org/2000/svg">
<path id="Vector-CTA" d="M69.9281 39.6919C68.878 36.9908 67.417 34.5772 65.5438 32.4537C63.6705 30.3289 61.436 28.6065 58.8427 27.288C56.5116 26.1002 53.9626 25.4533 51.1997 25.3331C52.3333 22.6451 52.9034 19.5232 52.9034 15.9635V0H9.04953V15.9635C9.04953 19.2631 9.57393 22.2439 10.624 24.9045C11.4224 26.9247 12.4699 28.7228 13.7652 30.304C11.155 31.2109 8.87343 32.5582 6.92324 34.3485C4.94696 36.1649 3.38289 38.4217 2.22973 41.1241C1.07788 43.8265 0.5 46.9706 0.5 50.5603V66.5238H38.3715C38.7081 66.7564 39.0564 66.9812 39.4151 67.1981C42.3593 68.9714 45.8488 69.8587 49.8835 69.8587C53.3026 69.8587 56.3485 69.2184 59.024 67.9404C61.7008 66.661 63.9653 64.9897 65.8177 62.9289C67.6714 60.8655 69.0815 58.5251 70.0481 55.9063C71.016 53.2862 71.5 50.6361 71.5 47.9559C71.5 45.2757 70.9756 42.3969 69.9242 39.6958L69.9281 39.6919ZM16.5242 8.53845H45.4287V15.9622C45.4287 18.0243 45.0778 19.8695 44.3786 21.499C43.6768 23.1286 42.6893 24.5007 41.4136 25.614C40.1365 26.7274 38.6129 27.5729 36.8427 28.1518C35.0712 28.7294 33.1367 29.0182 31.0378 29.0182C28.9389 29.0182 27.063 28.7294 25.2929 28.1518C23.5214 27.5742 21.9886 26.7379 20.692 25.6454C19.3953 24.5516 18.3752 23.1913 17.6343 21.5617C16.8933 19.9309 16.5229 18.0661 16.5229 15.9622V8.53845H16.5242ZM7.97464 50.5577C7.97464 48.4956 8.32555 46.6504 9.02475 45.0209C9.72656 43.3914 10.714 42.0193 11.9898 40.9059C13.2669 39.7925 14.7905 38.947 16.5607 38.3681C18.3322 37.7905 20.2667 37.5017 22.3656 37.5017C24.4645 37.5017 26.3404 37.7905 28.1105 38.3681C29.882 38.9457 31.4148 39.7821 32.7114 40.8745C34.0081 41.9683 35.0282 43.3286 35.7691 44.9582C36.51 46.589 36.8805 48.4538 36.8805 50.5577V57.4784L36.15 57.9828H7.97464V50.559V50.5577ZM62.053 52.9334C61.5181 54.6871 60.725 56.2539 59.6749 57.6352C58.6248 59.0177 57.3073 60.1416 55.7224 61.008C54.1374 61.8743 52.2746 62.3069 50.1327 62.3069C49.1439 62.3069 48.1355 62.1932 47.1063 61.9658C46.1527 61.7554 45.2357 61.4248 44.3526 60.9857V50.5577C44.3526 47.2581 43.8282 44.2774 42.7781 41.6168C42.1584 40.0486 41.3862 38.6177 40.4665 37.3149C40.6896 37.0208 40.9231 36.736 41.1775 36.4759C42.0019 35.6304 42.8968 34.9379 43.8647 34.4034C44.8326 33.8676 45.8514 33.4756 46.9224 33.2273C47.9933 32.9803 49.0226 32.8562 50.0114 32.8562C51.9055 32.8562 53.6456 33.2678 55.2306 34.0937C56.8155 34.9183 58.1748 36.012 59.3071 37.3737C60.4406 38.7353 61.3147 40.3126 61.9317 42.1068C62.55 43.901 62.8578 45.7671 62.8578 47.7063C62.8578 49.4391 62.5904 51.181 62.0543 52.9347L62.053 52.9334Z" fill="white"/>
</svg>
