<?xml version="1.0" encoding="UTF-8"?>
<svg id="Layer_1" xmlns="http://www.w3.org/2000/svg" version="1.1" viewBox="0 0 266 267">
  <!-- Generator: Adobe Illustrator 29.4.0, SVG Export Plug-In . SVG Version: 2.1.0 Build 152)  -->
  <defs>
    <style>
      .st0 {
        fill: #7c9d7c;
        fill-rule: evenodd;
      }
    </style>
  </defs>
  <path class="st0" d="M265.7,152.9v-.2c-.4-8.2-2.5-16.1-6.4-23.4-3.5-6.7-8.3-12.4-14.1-17.2-6.4-5.3-13.8-8.9-21.8-10.9-2.5-.6-5.2-1.1-7.8-1.3-2.6-.3-5.3-.3-7.9-.2-8.3.3-16.2,2.5-23.6,6.3-2.8,1.5-5.4,3.2-7.9,5.1l-22,17.9c-1.5,1.3-3.8,1-5.1-.5l-44-53.7c0,0,0-.1-.1-.2-2.1-2.6-3.8-5.6-4.9-8.8-1.5-4.2-2.1-8.7-1.6-13.2.5-4.5,1.9-8.8,4.2-12.6,3.6-5.9,9.1-10.4,15.6-12.7,4.3-1.5,8.7-2.1,13.3-1.6,4.5.5,8.8,1.9,12.6,4.2,2.9,1.8,5.5,4,7.6,6.6l.2.3c2.1,2.6,3.8,5.6,4.9,8.7,1.5,4.3,2.1,8.7,1.6,13.3-.5,4.5-1.9,8.8-4.2,12.6,0,0,0,0,0,0-.5.8-1.1,1.6-1.7,2.3s0,.1-.1.2c-3.3,3.9-5.8,5.8-7.3,6.8-.8.5-1.4.9-2.1,1.2,0,0,0,0-.1,0-.3.2-.8.4-1.2.7,0,0,0,0,0,0-.4.2-1.8,1-3.1,2.3-5,5-5,13.1,0,18.1,4.5,4.5,11.2,4.6,16.5,1.3,0,0,0,0,0,0,0,0,.1,0,.2-.1.9-.5,2.3-1.3,4.1-2.5,1.3-.9,2.8-2,4.4-3.3,0,0,0,0,.1-.1l1.1-.9c2.4-2.1,4.6-4.4,6.6-6.8,5.2-6.4,8.9-13.8,10.9-21.8.6-2.5,1.1-5.1,1.3-7.8.3-2.6.3-5.3.2-7.9-.3-8.3-2.5-16.2-6.4-23.5-1.6-3-3.5-6-5.7-8.8l-.4-.5c-2.4-2.9-5-5.6-7.9-7.9-6.5-5.3-13.8-8.9-21.9-10.9-2.5-.6-5.1-1.1-7.7-1.3-2.6-.3-5.3-.3-7.9-.2-8.3.3-16.2,2.5-23.6,6.3-6.7,3.5-12.5,8.2-17.2,14.1-5.2,6.4-8.9,13.8-10.9,21.8-.6,2.5-1.1,5.1-1.3,7.8-.3,2.7-.3,5.2-.2,7.9.3,8.3,2.5,16.2,6.3,23.6,1.7,3.3,3.8,6.4,6.2,9.3l44,53.7c.8.9,1,2.1.7,3.3s-.7,1.4-1.3,1.9l-7.8,6.4c-1.5,1.3-3.8,1-5.1-.5l-16.4-20c0,0,0-.1-.1-.2l-.7-.8c-2.3-2.7-4.8-5.2-7.5-7.4-6.5-5.2-13.8-8.9-21.9-10.9-2.5-.6-5.1-1.1-7.7-1.3-2.6-.3-5.3-.3-7.9-.2-8.3.3-16.2,2.5-23.6,6.3-6.7,3.5-12.5,8.2-17.2,14.1-5.2,6.4-8.9,13.8-10.9,21.8-.6,2.5-1.1,5.1-1.3,7.8-.3,2.6-.3,5.2-.2,7.8.3,8.3,2.5,16.2,6.3,23.6,3.5,6.7,8.2,12.5,14.1,17.2,6.6,5.4,12.5,8.4,20.1,10.3v.2s1.7.4,1.7.4c2.6.6,5.2,1.1,7.8,1.3,2.7.3,5.3.3,7.9.2,2.3,0,4.5-.3,6.6-.7,5.9-1,11.6-2.9,16.9-5.7,2.4-1.3,4.8-2.8,7-4.4l25.6-20.9,5.3,6.4.2.3.5.6c2,2.5,3.5,5.3,4.6,8.3,1.5,4.2,2.1,8.7,1.6,13.2-.3,2.6-.8,5.1-1.7,7.5-.7,1.8-1.5,3.5-2.5,5.1-1.8,2.9-4,5.5-6.6,7.6h-.1c0,.2-.2.3-.2.3h0c-1.7,1.6-3.1,3.6-3.7,5.8-2.4,7.9,3.1,15.7,10.9,16.5.4,0,.9,0,1.3,0,3,0,5.8-1,8.1-3l3.7-3.1.6-.6c1.6-1.6,1.6-1.7,2.4-2.6.3-.3.6-.8,1.2-1.5,1.4-1.7,2.7-3.5,3.9-5.4,3.2-5.1,5.6-10.6,7-16.4.6-2.5,1.1-5.1,1.3-7.8.3-2.6.3-5.3.2-7.9-.3-7.2-2-14.1-5-20.7-.4-.9-.9-1.9-1.4-2.8-1.6-3-3.4-5.8-5.5-8.4l-.2-.3-.3-.4-3.4-4.1c-.5-.6-.8-1.3-.9-2.1,0-1.2.4-2.4,1.3-3.1l7.9-6.5c1.5-1.3,3.8-1,5.1.5l17.2,21v.2c2.4,2.7,4.9,5.1,7.6,7.3,6.4,5.2,13.8,8.9,21.9,10.9,2.5.6,5.1,1.1,7.7,1.3,2.6.3,5.3.3,7.9.2,8.3-.3,16.2-2.5,23.6-6.3,6.7-3.5,12.5-8.3,17.2-14.1,5.3-6.4,8.9-13.8,10.9-21.8.6-2.5,1.1-5.1,1.3-7.8.3-2.6.3-5.3.2-7.8ZM97,174.3c0,1-.6,1.8-1.3,2.4l-18.9,15.5h-.1c-.1.2-.3.3-.4.5-.7.7-1.5,1.2-2.2,1.8l-.5.3c-2.2,1.6-4.7,2.9-7.3,3.8-4.2,1.5-8.7,2.1-13.3,1.6-2-.2-4-.6-5.9-1.2-2.4-.7-4.7-1.8-6.8-3.1-5.9-3.6-10.4-9.1-12.7-15.6-1.5-4.2-2.1-8.7-1.6-13.2.4-4.5,1.9-8.8,4.2-12.6,3.6-5.9,9.1-10.4,15.6-12.7,3.3-1.2,6.7-1.8,10.2-1.8s2,0,3.1.2c4.5.5,8.8,1.9,12.6,4.2,2.9,1.7,5.5,4,7.7,6.6l16.9,20.6c.6.7.9,1.7.8,2.6ZM240.1,158.1c-.4,4.4-1.8,8.6-4.1,12.4v.2c-3.7,5.9-9.2,10.4-15.7,12.7-4.3,1.5-8.7,2.1-13.3,1.6-4.5-.5-8.8-1.9-12.6-4.2-2.8-1.7-5.3-3.9-7.4-6.4l-17.1-20.9c-.6-.7-.9-1.7-.8-2.6,0-1,.6-1.8,1.3-2.4l19.5-15.9h0s.3-.3.3-.3h0c.5-.5,1.1-.9,1.7-1.3l.4-.3h0c2.3-1.7,4.8-3.1,7.5-4,4.2-1.5,8.7-2.1,13.2-1.6,4.5.5,8.8,1.9,12.7,4.2,5.9,3.6,10.4,9.1,12.7,15.6,1.5,4.2,2.1,8.7,1.6,13.2Z"/>
</svg>